<?xml version="1.0" encoding="UTF-8"?>
<svg id="Layer_2" data-name="Layer 2" xmlns="http://www.w3.org/2000/svg" xmlns:xlink="http://www.w3.org/1999/xlink" viewBox="0 0 1056.59 841">
  <defs>
    <style>
      .cls-1, .cls-2 {
        fill: none;
      }

      .cls-3 {
        fill: #231f20;
      }

      .cls-2 {
        clip-path: url(#clippath);
      }
    </style>
    <clipPath id="clippath">
      <rect class="cls-1" width="1056.59" height="841"/>
    </clipPath>
  </defs>
  <g id="Layer_1-2" data-name="Layer 1">
    <g class="cls-2">
      <path class="cls-3" d="m395.95,268.3c2.66-1.6,4.17-2.52,6.82-4.11-9.64-1.82-18.59,3.59-27.4-3.36.85-1.89,3.9-5.5,3.08-7.48-2.08-4.96,2.31-11.96-3.97-14.47,0-3.7-.16-6.68.03-9.63.35-5.3-4.16-10.26-1.03-15.76.19-.34-.13-.98-.27-1.46-1.81-6.71-4.01-13.34-5.33-20.15-.82-4.25-.35-8.77-.45-13.16-.08-3.87-.19-7.73-.23-11.6-.08-5.99-.05-11.98-.24-17.98-.07-2.01-.73-4.01-1.3-6.93-7.45,3.04-14.19,5.88-21.01,8.5-1.73.66-3.73.75-5.61.88-4.3.28-8.59.42-12.88.59-.55.02-1.15.1-1.63-.09-2.93-1.18-5.83-2.44-8.85-3.72-.59-1.85-2.31-4.39-1.88-6.51.7-3.47.19-6.84.51-10.23.75-7.76,1.43-15.53,2.19-23.29.62-6.21,2.89-11.51,8.55-14.86,1.57-.93,3-2.06,4.54-3.12,5.28,4.61,10.2-2.96,16.44-.49.55-2.87,1.97-5.77,1.38-8.19-1.52-6.24,1.79-11.23,3.31-16.65,1.18-4.24,2.81-8.4,4.71-12.35,1.3-2.71,3.41-5.02,5.17-7.49,2.87,2.46,4.85-2.29,8.34-.82,2.26.95,6.22-1.29,9.07-2.78,3.95-2.04,8.79,1.27,12.67-3.03,1.37-1.52,6.25.31,9.51.23,1.51-.03,2.98-1,4.34-2.01,6.03.21,12.17,3.46,18.4-.44.59-.37,1.35-.71,2.01-.67,4.84.2,10.25,1.99,14.39.42,6.96-2.64,13.62,1.39,20.46-1.32.49-4.97.87-10.46,1.64-15.9.31-2.17.99-4.63,2.37-6.19,1.01-1.14,3.43-1.1,5.25-1.44,4.52-.84,10.06-.27,13.28-2.74,3.41-2.62,5.9-1.96,8.99-1.35,1.02.2,2.39.69,2.82,1.46,2.46,4.51,4.58,9.21,7.07,13.7.81,1.45,2.36,3.38,3.69,3.5,10.95.91,21.91,1.35,32.91-.06,3.38-.43,6.98.91,10.49,1.29.89.1,1.85-.41,2.79-.5,3.5-.33,6.99-.59,11.3-.94,1.44-6.49,4.4,1.6,6.96.94.89-.23,2.81.77,2.9.57,1.38-2.95,3.79-1.68,6-1.92,9.07-.95,18.13-2.21,27.16-3.5,1.17-.17,2.23-1.23,3.3-.64h25.92c2.25,2.16.07,8.23,6.15,9.25-.27,1.89-4.39,5.47.35,5.99,1.74,4.54,2.82,8.71,4.85,12.34,3.43,6.13,3.36,9.41-1.35,14.02-.58.57-.93,1.36-1.77,2.62h31.74c.75,3.26,1.97,7.61,2.71,12.03.87,5.32,3.94,10.25,2.64,16.08-.16.71,1.86,2.79,1.17,4.85-.66,1.96-.84,4.11-1.64,6-.69,1.61-1.95,2.98-2.82,4.25-2.91.41-6.39,1.07-9.89,1.35-4.61.35-9.27.23-13.88.64-3.29.28-5.98,1.45-3.86,5.65.15.3.59.77.58.77-4.3,3.48.07,8.45-2.37,12.78-2.08,3.72-1.66,8.98-.28,13.62.3,1.02-.99,2.43-1.15,3.69-.85,6.82-2.71,13.75-2.04,20.43.71,6.99-5.67,13.13-1.18,20.59,1.52,2.54-.44,7.2-.82,10.88-.15,1.44-.92,3.15-.41,4.28,2.29,5.14.12,9.39-2.86,14.11,1.46.06,2.3.1,4.44.2-5.53,3.86-4.18,7.9-3.25,13.02.73,3.97-2.42,9.67-5.59,12.91-1.65,1.68-5.65,5.79-10.11,2.72-.63-.43-2.09.51-3.18.62-1.28.13-2.58.03-5.54.03,2.06,2.17,3.31,4.38,5.19,5.32,3.63,1.82,5.91,4.52,7.83,7.98.87,1.59,3.01,2.45,4.41,3.8.5.48.5,1.45.75,2.18.46,1.37.64,3.65,1.5,3.95,4.8,1.68,5.16,6.27,6.94,9.87,2.1,4.19,3.89,8.53,5.82,12.82.58,1.31.87,2.91,1.8,3.88.78.79,2.31.85,3.74,1.3-1.53,3.37-2.84,6.82-4.68,9.96-.58,1.01-2.69,1.83-3.89,1.6-1.58-.29-3.43-1.39-4.32-2.71-1.65-2.44-2.68-5.28-4.38-8.81-.62-2.59-1.46-6.24-2.26-9.63-1.03-.73-3.25-1.95-3.12-2.26,2-5.21-1.16-6.49-3.81-6.98-2.38-4.52-4.31-8.3-6.36-12.03-2.67-4.82-7.54-6.71-11.98-9.39-4.4-2.66-8.92-4.61-13.68-6.32-1.11-.39-1.56-3.58-2.4-3.61-4.66-.24-6.8-6.56-12.66-4.54-2.19.77-5.61-1.63-8.34-2.87-2.82-1.28-4.97-2.06-8.52-.67-2.45.95-6.72-1.96-9.82-3.77-2.18-1.28-3.75-2.9-6.02-.35-.42.46-1.57.64-2.24.45-7.62-2.12-15.37-.66-23.06-.84-2.17-.05-4.38,1.52-6.78,2.44-.8-.22-2.72-1.36-3.39-.85-6,4.56-12.9.36-19.16,2.24-7.23,2.18-14.55,4.12-21.9,5.92-5.25,1.3-11.08,1.22-15.79,3.52-4.97,2.42-11.79.28-15.28,6.29-.35.59-2.81-.36-3.89.2-6.47,3.36-12.99,6.65-19.15,10.52-8.17,5.14-15.32,11.51-20.52,19.87-1.72,2.78-4.48,4.91-6.06,7.75-2.18,3.92-3.54,8.31-5.56,12.34-1.14,2.28-3.15,4.13-4.34,6.4-2.45,4.63-5.11,9.27-6.6,14.22-.42,1.37,2.69,4.23,4.66,5.81,3.59,2.88,7.51,5.33,11.86,8.34,3.7-1.39,6.67-4.8,8.38-9.58.51-1.45,2.03-2.64,3.31-3.69,4.01-3.32,5.96-8.53,10.68-11.24.96-.56,1.05-2.67,1.03-2.65,2.8-1.89,4.8-2.98,6.49-4.45,4.09-3.5,8.07-6.83,14.05-6.64,1.38.05,2.83-2.26,3.33-2.69h26.74c7.04,2.19,12.41,3.68,17.63,5.56,6.01,2.16,12.31,4.03,17.65,7.36,2.23,1.38,4.19,4.25,6.6,6.25,5.03,4.18,14.6,3.88,19.3-1.02,3.41-3.56,6.43-7.75,10.45-10.44,7.34-4.94,14.98-9.72,23.1-13.14,6.64-2.81,14.17-3.55,21.54-5.27.1.38.36,1.31.44,1.61,5.11.93,9.63-3.34,14.87-.6,1.23.65,3.03.5,4.53.34,10.68-1.14,17.16,5.39,23.39,12.56.66.77,2.11.84,2.18.86,4.37,7.94,8.45,15.37,12.77,23.24,4.01-1.36,8.79-2.5,13.12-4.58,5.85-2.82,11.77-4.23,18.25-3.99,3.39.12,6.84-1,10.2-.72,1.66.14,3.09,2.29,4.75,3.32,1.16.72,2.6.95,3.76,1.67.85.52,1.95,1.4,2.07,2.25.73,5.47,3.29,9.81,7.41,13.4.82.72,1.43,1.92,1.72,3.01,1.99,7.28,4.3,14.5,5.62,21.91.95,5.38.96,11.02,1.44,16.41.35,3.95.66,7.99,1.28,12.06.49,3.16-.06,6.99-1.53,9.78-1.22,2.3,1.83,2.67.7,5.54-1.93,4.88-.16,11.14-.37,16.8-.16,4.23-1.06,8.44-1.47,12.67-.3,2.97-.34,5.98-.49,8.86-.86,3.04-1.7,6.27-2.68,9.44-1.49,4.78-2.62,9.75-4.77,14.22-1.63,3.41-4.9,5.99-6.93,9.27-5.93,9.52-13.63,17.22-23.03,23.27-5.62,3.62-11.17,7.37-16.96,10.68-1.68.96-4.12.85-6.2.77-3.07-.13-5.9-1.16-9.1.72-1.09.65-4.19-2.11-6.27-3.27-4.32,3.46-5.06,8.23-5.23,13.33-.06,1.5-1.22,2.93-1.7,4.45-.81,2.61-1.5,5.27-2.21,7.92-.2.77-.06,1.71-.43,2.36-2.59,4.52-5.43,8.89-7.87,13.5-1.27,2.38-1.51,5.31-2.83,7.64-2.48,4.37-5.42,8.48-8.17,12.69-3,4.59-5.99,9.16-9.57,14.63-8.47,6.05-18.04,12.88-28.08,20.04-.56-.24-1.73-.77-2.24-1-2.59,1.14-4.84,1.87-6.84,3.05-5.75,3.39-11.33,7.07-17.12,10.4-1.61.93-3.69,1.11-5.6,1.45-2.98.53-5.99,1.08-9.02,1.29-9.65.65-19.23,1.89-29.03,1.21-4.44-.31-8.48.37-12.15-2.84-.73-.64-2.82.5-4.26.43-2.55-.14-5.21-.19-7.59-.99-3.62-1.22-6.96-4.01-10.6-4.41-6.85-.75-11.39-4.63-15.94-9.05-2.5-2.43-5.39-4.45-8.05-6.71-.77-.65-1.38-1.46-2-2.25-2.31-3.01-4.03-7.07-7.07-8.69-1.96-1.05-1.61-1.17-1.29-2.59.16-.75.09-1.85-.35-2.43-4.03-5.28-8.26-10.43-12.24-15.76-1.71-2.28-3.15-4.81-4.39-7.37-2.89-5.97-4.32-6.56-9.73-3.92-1.18.57-2.69.45-4.06.62-4.98.63-9.96,1.23-15.17,1.88-1.99-.86-4.75-3.19-7.05-2.81-3.81.64-5.07-1.9-7.41-3.4-2.43-1.56-5.32-2.38-8-3.54-2.54-1.1-4.25-2.39-5.34-5.55-.93-2.71-4.63-4.46-8.08-7.49-1.27-3.19-3.17-8.02-5.1-12.84-2.03-5.09-4.1-10.16-6.13-15.2-.29-1.57-.59-3.24-.91-4.91-.67-3.53-1.3-7.06-2.03-10.57-.2-.95-.45-2.06-1.08-2.73-3.67-3.95-2.32-8.86-2.89-13.46-.73-5.85-1.95-11.65-3.08-17.45-.05-.23-1.28-.22-1.94-.33.46-3.72,4.52-6.96.5-10.81-.49-.46,1.09-2.97,1.58-4.56.84-2.74,2.44-5.56-.75-7.99-.23-.19.06-1.22.27-1.81.92-2.65,4.15-5.19.26-7.99,3.77-7.15-2.44-14.51.64-21.98,1.51-3.65.37-8.33.86-12.48.3-2.54,2.44-5.2,1.96-7.43-.85-3.94.01-7.08,1.16-10.76,1.94-6.19,2.97-12.55,5.93-18.54,5.09-10.26,12.4-18.25,22.36-23.49,3.46-1.82,8-1.58,12.32-2.33-3.17-9.74,4.58-16.26,8.02-24.11,2.19-5.02,3.46-10.9,8.85-14-.05-9.48,9.51-12.87,12.78-20.23.41-.93.36-2.07.31-1.77m148.5,333.2c1.3-.72,2.38-1.43,3.54-1.93,3.07-1.32,6.78-3.14,8.53-4.89,3.58-3.6,6.93-4.77,11.51-4.38.79.07,1.78-.05,2.42-.46,3.16-2.09,6.6-3.96,9.24-6.61,2.91-2.9,5.1-6.55,7.54-9.92,2.96-4.09,7.58-7.92,8.35-12.41.99-5.7,3.46-9.72,6.96-13.7.73-.84,1.4-1.85,1.75-2.89,1.42-4.27.63-9.52,5.57-12.23.43-.24.55-1.15.71-1.78.75-2.87,1.57-5.72,2.18-8.62.98-4.6,1.8-9.21,2.86-14.69,3.92-2.02,3.36-7.5,3.61-11.9.35-6.22,1.21-12.08,4.31-17.51.3-.53.78-1.11.77-1.66-.14-5.76.91-9.58,3.81-14.41.58-.96.72-2.23.89-3.39.31-2,.57-4.02.69-6.04.08-1.24-.09-2.52-.27-3.76-.35-2.6-2.01-6.49-.93-7.54,3.23-3.09.35-6.03.81-8.91.55-3.43-.16-7.01.06-10.52.33-5.36,2.15-10.95,1.09-15.98-.79-3.74,1.17-6.84.14-10.37-.93-3.17-.74-6.67-1.09-10.42.21-2.08.63-4.69.67-7.32.02-1.32-1.24-2.9-.84-3.94,2.44-6.29-.26-12.66.57-19,.57-4.42.45-8.72-2.33-13.49-2.01-3.47-2.5-9.16-3.5-13.85-1.01-4.68-3.25-6.71-6.46-8.23-.26-1.75-.24-4.48-.71-4.58-4.34-.77-3.84-5-5.74-7.44-2.45-3.16-5.71-4.95-9.65-5-1.81-.02-3.88,1.77-5.4,1.3-4.39-1.34-8.38-2.82-13.13-.75-2.01.87-5.26-1.23-7.4-.45-5.48,2.01-12.18,1.42-16.19,6.94-.29.41-1.16.39-1.78.53-2.65.6-6.57.34-7.69,1.99-1.99,2.93-5.59,2.3-7.28,4.78-.33.46.23,1.46.2,2.22-.02.41-.42.8-.77,1.42-1.05-.42-1.93-.77-3.08-1.23-.69,1.94-1.37,3.86-2.04,5.72-1.49.21-3.73-.14-4.32.7-3.63,5.17-3.53,5.21-8.31,7.44-2.08.96-4.09,2.09-6.03,3.09-1.88-.44-4.16-1.64-6.19-1.31-4.09.64-7.52-1.24-10.44-2.97-4.19-2.51-7.11-7.21-11.34-9.6-3.43-1.93-6.15-6.83-11.96-3.88-1.88.95-5.76-1.71-8.59-3-5.34-2.44-10.96-2.93-16.69-2.59-1.01.06-1.97,1.09-3.19,1.82-1.61-4.91-5.07-1.6-7.83-1.15-3.58.59-7.43,1.1-10.47,2.86-4.11,2.37-7.7,8.46-11.28,8.28-4.69-.24-4.67,2.62-6.37,4.46-2.28,2.47-4.39,5.12-6.42,7.8-1.14,1.5-2.6,3.15-2.82,4.87-.71,5.61-5.62,10.2-3.92,16.37.08.3-.51.84-.85,1.21-4.61,5.04-4.89,11.51-5.32,17.7-.64,9.3-.55,18.65-.89,27.97-.05,1.07-.91,2.1-1.46,3.33.74,1.03,3.74,2.15.13,5.65-1.74,1.7-.66,6.61-.37,10.02.3,3.69,1.52,7.34,1.7,11.03.26,5.31-.31,10.65-.05,15.95.1,2.03,1.64,3.96,2.35,6,.37,1.08.46,2.3.48,3.46.02,2.46-.19,4.94-.1,7.4.03,1.07.72,2.1.81,3.18.48,5.36.51,10.8,1.35,16.11.91,5.83,2.69,11.53,3.75,17.34.71,3.89.55,7.94,1.32,11.82.48,2.4,2.03,4.59,2.96,6.93.77,1.94,1.31,3.97,2.19,6.7-.08.21-.53,1.45-1,2.68,1.56.12,3.1.23,4.95.36-.33,4.3-2.61,8.93.84,13.02.88,1.05,3.02,2.26,2.84,2.79-2.15,5.99,3.86,8.67,5.53,13.03,2.24,5.84,7.37,10.65,11.55,15.65,5,6,10.26,11.8,15.51,17.59,2.26,2.51,4.77,4.8,7.18,7.18,1.88-.1,3.15.72,4.51,1.31,3,1.31,6,2.61,9.08,3.7.91.33,2.17-.42,3.1-.13,7.72,2.43,15.15,5.98,23.72,4.08,2.71-.6,5.6,2.69,8.73.17.48-.39,2.46,1.52,3.44,1.24,2.87-.8,5.49-2.53,8.37-3.23,3.66-.87,7.47-1.08,11.24-1.58.03.13-.22-.31-.19-.73.02-.38.35-.75.43-.91,6.94,2.39,11.03-.94,14.63-6.41.38.77.78,1.58,1.21,2.46M327.98,113.04c-.37,3.41-.74,6.61-1.06,9.81-.06.55.28,1.14.17,1.65-.71,3.45-1.51,6.87-2.25,10.31-.7,3.23.86,5.19,3.86,5.47,2.22.2,4.52-.56,6.78-.88,10.44-1.43,20.95-3.98,31.48.35-.39-9,1.92-11.03,8.95-9.15,1.05,9,2.09,18.02,3.12,27.04.34,1.53-.26,3.3-.29,5.06-.13,5.81,4.97,11.31,1.03,17.37,3.98,2.83-1.94,7.97,3,11.48,1.96,1.39.65,7.27,1.03,11.09.35,3.52.75,7.06,1.56,10.5.57,2.42,2.26,4.59,2.71,7,.91,4.84,1.3,9.79,1.9,14.7.13.96.56,2.07.27,2.9-1.83,5.21.71,9.68,1.68,14.75,4.7-.67,8.8-1.66,12.91-1.74,3.25-.07,6.53.95,10.44,1.59,4.41-2.88,10-6.53,15.21-9.94,1.95.12,3.73.58,5.31.22,5.16-1.16,10.29-2.46,15.33-4.04,5.33-1.68,10.51-3.84,15.82-5.6,3.33-1.09,6.79-1.8,10.18-2.72,2.62-.72,5.19-1.79,7.86-2.17,3.38-.48,6.85-.33,10.26-.64,2.65-.24,5.55-1.71,7.87-1.03,9.6,2.79,18.5-2.18,27.93-2.29,7.42-.08,15.23-.92,22.85-1.01,2.31-.03,4.54,2.73,7.03,3.45,3.62,1.05,7.49,2.1,11.17,1.89,6.97-.38,12.82,2.84,19.14,4.58,2.17.59,5.74,2.02,6.39,1.21,2.87-3.52,6.54-1.7,9.74-2.25,1.47-.24,3.22,1.21,4.75,1.05,3.82-.42,7.59-1.31,11.93-2.12.78-1.64,2.11-4.46,3.46-7.28-.71-4.35-1.09-8.85-.59-13.25.41-3.56,2.21-6.97,2.73-10.54.37-2.47-.96-5.23-.52-7.66.95-5.23,2.3-10.3-.87-15.27-.45-.7-.41-1.83-.31-2.74.37-3.66,5.04-7.12.5-11.05-.07-.06.66-.96.94-1.51.38-.74,1.02-1.56.95-2.28-.14-1.22-1.25-2.48-1.06-3.56.41-2.12,1.86-4.09,2.1-6.2.81-7.22,1.3-14.49,1.89-21.74.06-.79-.26-1.64-.08-2.38,1.1-4.84,3.26-9.68,3.16-14.47-.1-4.56,2.02-7.05,4.71-9.58,1.83-1.73,4.11-2.97,6.2-4.44-.44-.17-.87-.35-1.3-.52,2.8.29,5.6.58,8.41.87.09-.14.2-.28.29-.42h10.6c5.69-6.22-.28-13.42.75-20.65-4.73.3-8.94.31-13.07.89-5.4.75-10.71,2.52-16.11,2.74-3.62.15-6.73-.07-9.2,3.14-.49.64-2.21.59-3.29.41-1.11-.19-2.15-1.38-3.18-1.34-2.55.14-5.12.62-7.63,1.18-1.94.44-3.8,1.24-5.75,1.89-1.72-.52-4.67-2.33-5.69-1.57-3.62,2.72-7.52.6-11.14,1.58-.98.26-2.19-.58-3.23-.42-4.64.7-9.28,1.58-14.17,2.44.13.43.33,1.09.35,1.15-8.02-.55-16.27-1.32-24.51-1.57-5.49-.17-11.01.42-16.5.67-2.06.09-4.54-1.8-5.89,1.59-.27.67-2.14.95-3.27.99-5.62.16-11.29-.24-16.85.39-5.14.59-10.17,2.24-15.25,3.43-2.6.6-5.96,2.52-7.64,1.54-2.52-1.46-4.55-1.92-7.09-1.17-3.44,1-6.8,2.33-10.3,3.07-2.21.45-4.63-.2-6.89.15-2.33.36-4.55,1.38-6.86,2-2.25.6-4.55,1.07-7.81,1.82.14.07-.91-.42-1.87-1.03-4.96-3.11-10.25-.1-15.41-.85-5.74-.82-11.65-.93-17.45-.62-2.54.14-7.12-2.26-7.13,3.99-2.17-1.07-3.83-2.31-5.68-2.71-2.76-.6-5.68-1.05-8.45-.78-4.01.38-7.93,2.38-11.77-.78-.74-.63-2.4-.38-3.58-.17-3.23.57-6.41,1.49-9.65,1.95-2.52.37-5.21.8-7.64.29-3.69-.77-6.83.6-10.23,1.27-3.39.66-6.98.29-10.46.58-1.25.1-2.47.8-3.67,1.3-1.53.64-4.11,1.11-4.33,2.1-.52,2.28.1,4.81.27,7.22m190.27-37.23c.03-.26.08-.51.13-.77,1.86-.48,3.69-1.25,5.57-1.34,2.42-.12,4.87.38,7.3.51,1.2.07,2.4-.2,3.61-.2,5.89.06,11.79.35,17.66.15,2.68-.09,5.35-1.64,8-1.57,3.41.09,6.78,1.25,10.21,1.73,3.09.44,6.24.87,9.34.72,1.82-.09,3.59-1.34,5.39-2.06,6.98,1.72,16.28,2.3,17.44-2.57,12.41,1.01,24.2-.94,34.75-5.18-2.17-4.96-3.84-8.7-5.46-12.46-1.56-3.6-3.04-7.23-4.64-11.07-1.02.41-2.14.86-3.82,1.52.57-1.43.72-2.47,1.3-3.15,1.57-1.82,2.42-3.97.23-5.36-1.18-.75-3.44.26-5.21.3-1.89.05-3.81.01-5.69-.17-1.79-.19-3.63-1.13-5.3-.84-7.04,1.23-13.97,3.03-21.01,4.15-3.63.57-7.43.15-11.16.14-3.05,0-6.15-.41-9.15,0-4.61.63-9.24,2.86-13.68,2.42-4.02-.39-7.78-1.45-11.9-.33-1.18.33-2.81-1.46-4.3-1.64-1.86-.21-3.8.44-5.69.39-5.35-.12-10.8-1.06-16.04-.38-4.17.53-7.57.06-11.1-1.9-1.23-.69-2.83-.94-4.27-.95-5.23-.06-10.24-3.86-11.6-9-.64-2.44-1.24-4.88-1.89-7.44-3.5.35-6.69,1.3-9.65.84-5.23-.82-6.12,1.75-6.13,5.95-.02,4.25-.33,8.5-.42,12.74-.03,1.76.16,3.53.26,5.61-1.25.62-3.8,2.86-5,2.28-5.54-2.65-10.47,1.67-16.28.37-7.44-1.66-15.63-.1-23.49.2-1.61.06-3.2.8-4.83,1-5.06.6-10.14,1.38-15.22,1.53-3.98.13-8.06-1.2-11.97-.77-7.47.81-14.85,2.36-22.26,3.7-6.73,1.23-7.57,3.09-10.61,9.34-1.92,3.96-3.58,7.21-3.56,11.9.01,4.33-2.54,8.67-4.06,13.3,2.67-.69,4.13-1.6,5.2-1.25,6.75,2.19,13.26.88,19.79-.87.92-.24,1.87-.86,2.72-.72,4.12.63,8.22,2.6,12.22-.56.39-.33,1.49.09,2.19.33,1.47.46,2.88,1.39,4.35,1.51,3.92.29,7.86.17,11.8.36,6.55.3,13.1.79,19.65,1.06,3.62.14,7.25-.02,10.87-.08,1.3-.02,2.59-.12,3.89-.22,3.84-.28,8.65.77,11.34-1.15,5.71-4.04,12.22-1.94,18.21-4.04,8.8-3.07,18.54-3.5,27.91-4.89,2.95-.44,5.97-.33,8.95-.53,1.72-.13,3.41-.38,5.12-.58m-137.37,305.89c.24-1.65.72-4.23.98-6.84.34-3.44.5-6.9.74-10.35l4.77-7.92c1.96-2.15,1.88-7.35-.22-8.79-4.17-2.83-8.33-5.71-12.66-8.3-1.75-1.05-3.92-1.44-5.96-1.92-.78-.19-1.7.3-2.55.38-2.26.2-5.11-.46-6.69.66-3.84,2.76-7.76,5.89-10.45,9.71-3.91,5.56-7.03,11.74-9.96,17.91-1.09,2.29-.39,5.34-1.09,7.9-.74,2.8-2.64,5.34-3.16,8.15-.77,4.11-.92,8.35-1.05,12.54-.15,4.9.16,9.8-.01,14.7-.15,4.61-.51,9.24-1.07,13.83-.57,4.69-.43,9.13.64,13.88,1.2,5.28.6,10.98.59,16.49,0,3.2-1.45,6.8-.41,9.52,3.62,9.39,2.93,19.52,5.62,29.01,1.51,5.34,3.48,10.57,5.45,15.77.94,2.46,2.89,4.63,3.44,7.14.75,3.41.62,7.03.81,9.97,1.74.45,3.45.52,3.55.98,1.37,5.92,6.58,8.6,10.29,12.52,1.32,1.4,3.1,3.56,4.55,3.47,5.64-.36,9.56,7.56,15.88,3.2.06-.03.74,1.3,1.31,1.52,1.94.74,4.23,1.96,4.67-1.66,1.38.46,2.76.93,4.1,1.38.99-1.72,1.51-3.61,2.74-4.52,2.1-1.54,1.5-2.12.49-4.32-3.03-6.56-3.41-13.82-4.18-21.01-.38-3.53.72-8.87-3.99-10.16-.44-3.26-.82-6.11-1.32-9.89,1.82-2.12,1.74-2.09-.45-6.17-.91-1.7-2.48-4.23-1.88-5.33,2.1-3.77-.24-6.69-.89-9.96-.85-4.23-2.73-8.74-1.93-12.68,1.56-7.64.34-14.99-.77-22.27-.59-3.94-1.85-7.35-.95-11.67,1.07-5.14.26-10.69.2-16.06-.05-4.46-.53-8.95-.15-13.37.34-3.66,1.95-7.19,2.43-10.85.23-1.85-.8-3.86-1.45-6.61m264.13-3.79c-.17,2.11-.19,4.54-.59,6.9-.6,3.45-1.95,6.84-2.11,10.3-.26,5.21.37,10.46.37,15.7.01,6.24-.34,12.46-.35,18.68-.01,3.12.42,6.24.55,9.36.05,1.09-.14,2.22-.36,3.29-2.01,9.49-4.02,18.96-6.07,28.44-.81,3.73-1.87,7.4-2.57,11.14-.42,2.28.57,5.67-.67,6.8-4.97,4.53-2.35,9.54-2.25,14.7,3.89-.19,7.43-.09,10.9-.58,3-.43,5.99-1.27,8.81-2.38,2.09-.82,3.89-2.37,5.82-3.6,1.6-1.34,3.44-2.14,4.78-3.44,1.38-1.34,1.97-3.54,3.44-4.71,3.27-2.64,7.22-4.49,10.21-7.39,2.26-2.19,3.07-5.88,5.26-8.17,2.24-2.32,4.28-4.1,4.3-7.83,0-1.82,5.63-2.16,2.5-5.99,6.56-3.61,1.74-10.79,4.95-15.84,2.01-3.17,1.6-7.94,1.77-12.2.24-6.55,2.87-12.92-1.46-18.74,5.04-5.14.35-11.84,3.18-16.93-1.49-.89-2.66-1.59-3.82-2.29.53-.1,1.07-.21,1.6-.33.38-1.88,1.14-3.8,1.03-5.65-.1-1.66-2.15-3.77-1.63-4.8,3.61-7.06-1.61-13.55-1.01-20.4.17-1.96-2.17-4.13-3.52-6.49-1.86-6.05-3.22-12.97-6.18-19.12-1.58-3.29-5.78-7.18-9.02-7.39-5.81-.39-11.82,1.61-17.67,2.96-2.98.69-5.93,1.83-8.64,3.26-2.73,1.45-5.95,3.32-5.92,6.69.01,2.76.96,6.26,2.82,8.11,3.51,3.5.65,5.45-1,7.83,1.21,1.59,4.32,2.57.92,5.02-.81.59-.31,3.18-.22,4.83.12,1.9.38,3.81.72,5.7.27,1.49.73,2.95,1.15,4.58"/>
      <path class="cls-3" d="m500.81,402.19c1.75-.51,3.51-1.02,5.79-1.68,6.32,3.92,9.52,9.41,7.32,16.63-1.24,4.05-5.06,7.3-7.61,10.98-.63.91-1.11,2.12-1.1,3.18.05,3.22.41,6.43.57,9.64.55,10.5-.44,21.1,2.58,31.4.2.69-.12,1.58-.36,2.32-2.44,7.43-2.01,15.04-1.5,22.68.07,1.09-.88,2.25-1.47,3.66,1.02.35,1.93.96,2.8.93,5.74-.3,11.5-.56,17.2-1.22,1.78-.22,3.38-1.74,5.13-2.52,1.02-.45,2.19-.57,3.26-.93.75-.26,1.94-.51,2.11-1.06,1.95-5.71,7.63-6.18,11.93-8.47,2.73-1.45,5.89-2.1,9.32-3.26.36,4.55.93,7.85-2.09,11.6-2.22,2.76-4.38,4.88-7.3,6.69-1.17.73-1.49,2.87-2.33,4.67-1.89-.38-4.97-1.89-6,2.45-.05.22-.8.56-.99.44-4.32-2.71-4.05.91-4.38,3.36h-4.45c-.05.16-.1.33-.15.5-3.7-.3-7.42-.94-11.11-.82-6.28.2-12.6,1.53-18.82,1.1-3.48-.23-6.77-3.09-10.18-4.69-3.3-1.54-6.73-2.83-9.94-4.55-1.3-.7-2.12-2.24-3.22-3.36-2.96-3.03-6.22-5.83-8.86-9.14-2.29-2.86.46-8.5,4.08-9.09,1.23-.2,2.47-.41,3.72-.6,2.5,6.24,6.78,10.87,12.78,13.82,1.15.56,3.25.94,3.94.31,1.21-1.09,2.36-3.05,2.29-4.6-.12-2.8-1.17-5.55-1.81-8.31-.03-.13.07-.29.12-.43,1.82-5.28-.36-10.3-.62-15.35-.24-4.81.74-10.35,1.93-15.51.92-3.96-.79-8.44-.43-12.61.51-5.93.58-11.4-1.82-17.22-2.36-5.7,1.77-14.46,6.68-18.16,1.2-.89,1.82-2.55,2.72-3.86.09.36.2.72.3,1.09"/>
      <path class="cls-3" d="m582.13,381.79c-6.28,1.8-12.16,4.56-18.17,4.91-6.12.36-10.66-3.9-12.04-8.69v-18.45c1.09-2.16,2.04-4.73,3.58-6.91,2.19-3.12,4.67-5.83,9.36-5.04,1.17.2,5.53.66,3.54-4.59,5.68.28,10.94.51,16.19.86.96.06,2.28.28,2.79.93,2.76,3.53,2.21,11.28.53,15.65-1.28,3.34-3.56,7.35-.33,11.21.21.23-.81,2.17-1.57,2.44-2.88,1.01-4.45,3.56-3.88,7.68"/>
      <path class="cls-3" d="m456.22,351.81c2.14,3.68,8.92-1.42,10.42,5.42.51,2.35,4.19,4.1,6.57,5.92,3.73,2.86,3.3,6.97,4.38,10.92,2.02,7.39-1.21,10.76-6.48,14.29-2.96,1.99-4.93,5.47-9.15,5.33-2.57-.08-5.18.19-7.72-.13-3.03-.37-7.33-.2-8.71-2.04-2.38-3.17-3.39-7.63-4.16-11.7-1.2-6.37-.3-12.51,4.26-17.65.51-.57.85-1.5.86-2.26.08-4.74,3.54-5.68,7.13-6.62.87-.23,1.63-.91,2.6-1.47"/>
      <path class="cls-3" d="m128.75,784.63c2.11.87,2.59,1.96,1.14,3.79-.71.89-1.25,2.21-1.2,3.3.06.86,1.14,1.66,1.92,2.69-.72,7.05-3.92,14.76-1.6,23.75-.29.82-.88,2.55-1.75,5.12-1.37-.38-3.58-.92-5.7-1.65-1.05-.36-2.66-1-2.79-1.72-.59-3.34-.87-6.76-1.03-10.16-.06-1.29.51-2.61.8-3.95-1.38-.3-2.39-.51-3.54-.75,3.88-4.84,3.82-7.73.14-9.25.75-2.25,1.66-4.46,2.18-6.75.27-1.18.22-2.75-.36-3.76-2.04-3.51.38-6.43,1.09-9.51.49-2.15-1.21-9.48-3.62-10.6,1.54-1,2.79-1.81,3.95-2.55.37-4.45.88-9.01,1.05-13.57.03-.98-1.15-2-2.17-3.65.2-.44.8-1.64,1.3-2.88.21-.53.21-1.15.3-1.73-.5-.03-1.01-.03-1.5-.13-3.26-.62-4.67.28-5.17,3.98-.24,1.89-3.38,3.39-5.19,5.09-2.08,1.96-5.74,3.83-5.88,5.92-.26,3.9-2.81,3.44-4.82,4.73-1.74,1.1-2.64,3.52-3.89,5.35-.2.29-.28.71-.53.89-2.76,2.01-5.69,3.83-8.29,6.02-1.72,1.45-3.29,3.26-4.4,5.2-1.09,1.89-2.42,2.59-4.51,2.8-2.08.22-4.09,1-6.15,1.44-.52.12-1.43.13-1.64-.16-1.7-2.38-4.22-2.66-7.29-2.48.57-1.29.92-2.04,1.3-2.91-2.06-2.24-4.16-4.52-6.56-7.12-.45.13-1.41.41-1.57.46-.75-1.52-1.22-3.01-2.12-4.16-1.63-2.1-3.61-3.92-5.25-6.02-2.83-3.62-6.55-6.64-7.35-11.64-.37-2.33-1.49-4.55-2.32-6.8-1.42-3.83-5.09-4.67-8.99-6.64-.28,4.74-1.71,9.39-.39,13.09,1.02,2.89,0,4.11-.88,6.04-.28.6-.43,1.32-.44,1.99-.02,3.3-.12,6.61.08,9.89.12,1.8.88,3.54,1.13,5.34.21,1.46.22,2.98.08,4.46-.22,2.12-.79,4.23-.91,6.35-.02.6,1,1.27,1.59,1.94-.89.81-1.79,1.61-2.67,2.42.69.31,1.37.63,2.14.98,0,.3.14.73-.02.94-1.22,1.64-4.48,2.74-1.31,5.43-.75.8-1.51,1.59-2.48,2.62v18.67c-3.43,3.15-8.47-2.64-10.93,3.33.05-.67.13-1.36.12-2.04-.01-.66.12-1.75-.21-1.93-2.5-1.31-1.29-3.22-.89-4.94.43-1.9,1.2-3.75,1.53-5.68.09-.53-.81-1.25-.8-1.24.79-4.56,2.59-8.24.62-12.69-.92-2.06-.19-4.92.05-7.4.46-4.87,1.11-9.71,1.67-14.56.31-2.82.75-5.64.82-8.47.05-1.81-1.18-3.96-.56-5.38.73-1.65,1.21-2.95.81-4.7-.3-1.35-.3-2.75-.43-4.18,1.16-4.05,4.24-7.62,1.78-12.81-1.06-2.24.38-5.68.72-8.57.1-.91.39-1.78.48-2.68.15-1.67-.13-3.47.38-5.02.78-2.42,2.07-4.67,3.32-7.37.29.07,1.23.26,2.3.48-.03-.53-.07-1.02-.1-1.71,1.8,1.36,5.65,1.08,3.79,5.31h3.47c-1.06,1.49-2.95,3.18-2.62,3.86.94,2.01,2.46,4.04,4.3,5.26,1.82,1.21,3.45,1.79,3.58,4.53.06,1.11,2.46,2.09,3.72,3.22.58.52.98,1.25,1.05,2.24,4.6.78,3.1,9.71,9.92,7.98.19.59.66,1.3.46,1.61-1.53,2.47.26,3.95,1.45,5.74,1.14,1.72,1.96,3.65,2.93,5.48.36.69.6,1.49,1.14,2.01,1.8,1.8,3.73,3.46,5.54,5.25.59.58,1.14,1.32,1.39,2.09,1.24,3.81,2.96,7.08,7.36,7.05,1.2-.3,2.66-.29,3.53-.99,1.72-1.39,3.11-3.16,4.61-4.81.53-.58.86-1.38,1.45-1.87,2.68-2.15,5.67-3.99,8.09-6.41,2.1-2.09,3.51-4.85,5.39-7.19,1.82-2.26,3.48-5.24,5.92-6.29,2.26-.99,2.89-2.15,3.33-4.38.87.35,1.6.65,2.33.95-.26-.22-.52-.44-.78-.66,7.59-6.1,12.18-15.27,21.04-19.65.89,1.3,1.71,2.14,2.11,3.14,1.28,3.15,2.5,6.33,3.54,9.56.3.93,1.05,2.04-1,2.95-.93.41-.67,3.82-.69,5.88,0,1.8.02,3.73.64,5.38,1.85,4.96-1.8,9.18-1.59,13.86.07,1.82.92,3.69.64,5.42-.45,2.88-.21,5.28,1.61,7.69.67.89.69,2.59.42,3.8-.67,3.07-1.66,6.07-2.62,9.43"/>
      <path class="cls-3" d="m350.83,783.59c.75-1.32,1.45-2.54,2.31-4.05-1.36-.19-2.36-.31-4.63-.63,1.78-1.2,2.9-1.73,3.67-2.58.44-.49.38-1.49.42-2.26.07-1.85.05-3.69.1-5.53.05-1.58,1.38-2.96-.19-4.82-.78-.92.29-3.24.17-4.9-.19-2.65-.66-5.27-1.03-8.09.56-.09,1.32-.22,2.35-.38-.37-.27-.75-.41-.8-.6-.24-1.23-.93-3.33-.53-3.56,1.77-1.02,1.56-2.17,1.05-3.7-.28-.84-.57-1.9-.29-2.66,1.14-3-1.89-6.62,1.49-9.36.34-.27-2.17-2.43.63-3.29,3.52-1.08,6.53-.13,9.24,2.04.46.36.58,1.23.71,1.89.06.26-.48.79-.39.87,2.18,2.35.57,4.77.33,7.19-.03.41,1.23.93,1.96,1.45-3.96,4.88-1.16,10.93-2.98,19.14-1.45,2.54-1.41,3.79,1.79,6.37-.84.6-1.66,1.2-2.01,1.45-.53,3.37-.99,6.33-1.46,9.37.17.07,1.28.31,1.27.5-.19,4.1-.55,8.19-.77,12.29-.1,1.88-.77,4.52.19,5.49,2.32,2.38-.03,3.54-.55,5.21-.34,1.14-.41,2.35-.71,4.23-4.73,2.8-14.41-.66-14.76-5.97-1.79-1.49-5.95-.5-4.87-4.83-4.05-.58-1.96-7.61-7.3-6.96-.31.03-1.14-1.15-1.09-1.72.22-2.75-.94-3.76-3.62-3.29-.17-2.15-.6-3.33-3.16-4.74-2.38-1.32-4.32-4.22-7.47-5.09.29-3.83-5.06-3.94-5.09-7.59,0-.29-.45-.69-.78-.84-3.84-1.77-7.61-3.6-9.95-7.36-2.75,1.15-2.55-1.11-3.03-2.59-.72,3.11-2.08,6.26-1.95,9.34.13,3.03,1.99,5.96,2.66,9.01.2.87-1.06,2.07-1.8,3.39,3.1,1.79,1.02,4.63.71,7.2-.3,2.57-.46,2.55,1.72,3.67-.27,2.58-.38,5.04-.84,7.44-.48,2.5-1.35,4.91-1.93,7.39-.45,1.95-.14,1.8,1.22,3.72.57.79.03,2.51-.29,3.73-.34,1.21-1.03,2.31-1.8,3.96-.87-.21-2.17-.51-3.47-.82-.2-.05-.39-.24-.55-.2-3.17.91-3.02.85-4.58-2.59-.44-.96-2.03-1.41-3.33-2.24.52-1.24,1.32-2.91,1.9-4.66.24-.73.08-1.64-.02-2.45-.33-2.53-.85-5.05-1.02-7.59-.14-1.94.39-3.94.21-5.86-.55-5.72,2.04-11.37-.43-17.29-1.14-2.72.21-6.47-.1-9.64-.26-1.42-.84-2.86-.7-4.23.19-1.75.95-3.45,1.45-5.18.13-.44.42-1.17.24-1.32-4.2-3.72.53-9.03-2.36-12.97-.23-.31.03-1.06.19-1.57,1.42-4.59-1.11-10.42,4.45-13.7,1.47-.88,1.38-1.06,2.54.52.1.15.05.57.1.57,1.02.14,2.68-.13,2.97.39,1.75,3.08,3.14,6.36,4.78,9.52.55,1.07-2.73,1.01-.33,2.96,2.82,2.29,4.51,5.95,6.73,8.99.33.44.87.91,1.39,1.02,2.66.59,4.47,1.29,5.5,4.62.7,2.23,4.71,3.33,7.05,5.17,1.75,1.39,3.22,3.15,4.81,4.75.79.79,1.61,1.56,2.36,2.4.96,1.1,1.79,2.33,2.78,3.41,1.67,1.82,3.41,3.59,5.19,5.32.08.07.86-.56,1.03-.69.58.86,1.11,1.71,1.71,2.51.48.66.93,1.37,1.54,1.87.72.59,1.6.99,2.44,1.44.58.31,1.71.62,1.7.87-.19,3.76,2.81,4.87,5.23,6.5.33.22.44.75.69,1.21"/>
      <path class="cls-3" d="m575.59,800.37c-4.23-1.22-8.41,1-12.74,2.67-.72-.96-1.41-1.88-1.86-2.48-2.67.24-5.21.6-7.76.66-4.51.1-9.01.02-13.52.02-.01.29-.01.59-.01.88-.58-.72-1.16-1.44-2.32-2.87-.5.88-.92,1.63-.85,1.5h-9.01c-.36-1.34-3.23-3.16-.69-6.13.39-.46-.33-2.21-.91-3.11-2.72-4.16-1.73-8.79-1.06-13.02.5-3.17-.17-3.37-2.35-2.98.79-2.32,1.73-4.73,2.45-7.21.87-3.01,1.06-5.96-1.02-7.54.75-3.51,1.57-6.55,2.03-9.63.43-2.91.37-5.9.77-8.81.1-.74,1.1-1.37,1.47-1.81-2.08-8.44.57-16.28,2.96-24.54h5.24c0-.1.01-.2.02-.29,2.24,0,4.52.26,6.71-.08,1.68-.26,3.23-1.34,4.89-1.88.87-.28,2.4-.63,2.69-.24,2.23,2.98,4.91.71,7.34.79,4.41.14,4.41.05,7.12-2.44.52.56,1.06,1.1,1.57,1.67.45.51.88,1.03,1.15,1.35.93-.55,1.68-.99,2.45-1.43l.53,2.31c.14-.17.28-.36.42-.53,1.25,1.21,3.47,2.32,3.59,3.63.38,3.89-1.71,6.65-4.59,6.87-1.57.12-3.18-.56-4.78-.56-6.37,0-12.74-1.05-19.16.3-1.78.37-4.28,1.56-6.22-.57-.15-.17-1.72.92-2.86,1.56-.52,6.63-1.15,13.69-1.56,20.75-.05.84,1.2,1.74,2.47,2.15v3.45c1.08-.16,1.99-.19,2.84-.43,5.1-1.46,9.97-.96,14.99.78,2.02.7,4.64-.26,6.97-.62,2.36-.37,4.67-1.28,7-1.3,1.83-.01,3.66,1.15,5.53,1.42,1.31.19,2.71-.26,5.06-.52,2.39.56,5.95,1.37,9.89,2.29.72,2.25,1.64,4.75,2.29,7.32.16.69-.24,1.93-.8,2.3-.81.52-2.29,1-2.98.6-2.57-1.46-4.93-.59-7.04.56-2.54,1.38-7.34,1.39-8.6.22h-8.12c-.82-1.31-5.99-2.59-8.59-1.97-1.41.33-2.97.49-4.38.22-3.8-.72-3.79-.82-5.46.85-2.71-.35-4.71-.77-6.73-.84-4.94-.16-4.64.82-4.88,6.2-.14,3.19,2.59,6.27.3,9.44-.29.39-.21,1.52.13,1.82,2.15,1.92.6,2.62-1.37,3.55.86.26,1.44.43,2.01.6-1.37,3.17-.09,4.76,3.19,4.9,4.01.16,8.19-1.7,11.57-.94,3.86.87,7.61-2.3,11.12.49.27.22,1.2-.41,1.82-.63,2.51-.84,5-1.68,7.52-2.47.23-.07.59.22.88.35,2.94,1.32,6.08,2.33,8.74,4.08,1.99,1.3,1.24,4.2-1,5.83-1.35.98-2.64,2.02-4.55,3.5"/>
      <path class="cls-3" d="m177.4,742.8c1.2-1.18,3.25-2.73,4.66-4.74,1.93-2.73,5.23-4.19,6.46-7.62.33-.88,2.81-1,4.3-1.46,4.63-1.43,9.15-3.41,14.24-2.42.74.14,1.66-.62,2.37-.28,1.36.29,2.71.65,4.08.87,1.27.21,2.64.06,3.82.46,2.68.94,5.2,2.67,7.94,3.1,4.15.67,6.46,4.34,10.01,5.38,1.58,2.87,3.3,5.54,4.55,8.42.88,2.04,1.25,4.35,1.65,6.58.39,2.25.52,4.56.78,6.84.05.46.22.94.16,1.38-.72,4.84-2.23,9.72-1.96,14.5.23,4.23-.64,7.29-3.25,10.45-.94,1.14.19,3.27-1.45,4.97-3.94,4.06-7.4,8.57-11.05,12.89-.37.43-.92.74-1.17,1.22-2.3,4.28-5.9,5.42-10.65,5.48-4.3.05-8.6,1.35-12.87,2.28-.57.13-.89,1.36-1.73,2.75-1.99-1.31-3.98-2.64-6.27-4.16-.02.07-.41.92-1.09,2.45-5.48-2.84-10.95-5.59-16.27-8.58-.71-.39-.69-2.04-1.01-3.12-.62.14-1.44.34-2.55.6.45-3.19.39-5.98-3.24-7.18-.58-.2-1.03-1.73-1-2.62.08-3.26-1.37-6.57.33-9.8.23-.42.01-1.1-.08-1.66-.16-.98-.67-1.99-.52-2.9.28-1.79,1.2-3.5,1.35-5.27.3-3.46,1.53-6.67,1.51-10.36-.01-3.32,1.35-7.86,4.59-10.98,1.65-1.59,2.09-4.44,3.4-7.48m16.22-2.47c-2.32,4.11-4.63,8.29-9.12,9.8-.35,1.6-.2,3.4-.96,3.98-2.18,1.64-1.83,3.16-.43,4.89-4.4,2.9-5.35,7.16-2.37,10.09-1.96,1.14-3.1,2.48-2.93,5.12.21,3.01-1.28,6.32-.46,9.03.88,2.93-.13,6.56,2.93,8.87,3.11,2.35,5.84,4.92,10.14,5.49,3.73.49,7,2.86,11.25,1.94,4.73-1.02,9.79-.57,14.06-3.45,1.81-1.22,3.54-2.57,5.38-3.91-.6-.16-1.18-.33-2.24-.6,2.75-2.31,5.3-4.24,7.58-6.46.84-.81.84-2.45,1.59-3.44,2.14-2.78,3.4-5.49,3-9.31-.38-3.55.81-7.25,1.09-10.89.08-1.14-.92-2.37-.81-3.5.17-1.82,1.36-3.62,1.22-5.36-.23-2.74.39-6-3.54-7.36-1.61-.57-2.54-2.93-4.15-3.77-2.62-1.38-5.54-2.22-8.38-3.14-.23-.08-.85,1-1.09,1.29-1.14-1.01-2.26-2.87-3.45-2.91-3.39-.1-6.84.29-10.18.94-2.71.52-5.28,1.71-8.12,2.66"/>
      <path class="cls-3" d="m426.41,742.57c.37,2.72.72,5.26,1.07,7.78-2.03,4.92-1.47,9.87.3,15.48,3.79-2.25,8.14-3.61,10.49-6.56,2.71-3.38,6.11-5.25,9.28-7.71.37-.3,1.18-2.86,1.43-2.67,1.95,1.45,2.97-.01,4.12-1.01,1.86-1.61,4.32-2.3,5.43-5.13.64-1.66,3.37-2.9,5.4-3.55,4.04-1.3,8.26-2.07,11.95-2.95.6,1.73,1.18,2.82,1.31,3.95.08.81-.22,1.9-.77,2.48-3.01,3.17-6.03,6.33-9.27,9.25-1.43,1.3-3.41,1.96-5.04,3.07-.75.51-1.17,1.49-1.87,2.08-2.42,2.04-4.78,4.13-7.36,5.93-1.25.87-2.9,1.2-4.39,1.68-4.15,1.35-7.03,3.92-8.16,8.21-.1.37.15.84.24,1.34,2.1-1.47,1.56-1.09,2.98.95,1.36,1.93,3.97,3.04,6.15,4.31,1.73,1.01,3.59,1.81,5.47,2.48,1.72.63,3.54.95,5.46,1.44.13,1.77.14,1.51,2.31,1.56,1.16.02,3.07.89,3.33,1.78,1.25,4.13,4.02,4.71,7.68,3.98.45-.09,1.27.14,1.49.49,2.11,3.5,6.41,5.71,6.25,10.82-2.03.39-4.19.73-6.31,1.24-4.69,1.14-8.47-.57-11.83-3.63-.39-.36-.95-1.09-1.17-1-3.51,1.35-5.23-.78-6.94-3.24-1.15-1.65-2.74-2.14-4.9-1.78-1.32.21-3.87.98-3.59-2.24.03-.46-1.06-1.15-1.73-1.52-2.02-1.08-4.02-2.66-6.17-2.91-3.81-.44-4.75-5.56-9-5-.22.02-.69-1.71-1.11-2.82-3.37,1.77-2.89,4.71-2.59,7.34.12.95,1.61,1.74,3.16,3.26.23,1.15-6.65,2.96-.34,5.77-.88.58-1.65,1.1-2.64,1.78,2.79,4.44-.45,8.59-1.6,12.9-.34,1.24-2.42,2.02-3.69,3.02.14.27.28.52.42.79-1.5-.5-3-1.01-5.11-1.72-.34-1.92-.91-4.46-1.17-7.03-.24-2.24-.13-4.53-.21-6.8-.06-1.44.37-3.38-.39-4.25-3.14-3.58-.53-6.72.57-9.78,1.28-3.55,1.16-5.75-1.59-7.7,2.04-3.15,2.02-3.31.33-4.1.5-7.95.99-15.58,1.5-23.65-.42-.34-1.3-1.03-2.28-1.82.85-2.11,1.67-4.17,2.69-6.73-1.71-3.29-2.84-7.18.06-11.31,1.01-1.45,1.78-3.34,1.88-5.09.17-2.97,2.68-2.08,3.89-2.25,1.24-.19,3.09.74,2.46,3.23-.26,1.02,1.28,2.36,1.56,3.65.38,1.78,1.14,4.16.35,5.36-1.81,2.72-.14,4.13,1.15,5.92.35.49.95,1.35.8,1.53-.42.51-1.16.78-1.73,1.11"/>
      <path class="cls-3" d="m825.28,813.01c2.26-3.32,2.38-11.15.21-12.96,3.04-2.62,2.9-9.96-.24-12.88,2.46-1.25,3.26-4.3,2.62-7.26-.43-1.95.05-4.12.2-6.2.05-.64.63-1.77.49-1.83-4.06-2.25-.26-4.48-.07-6.71.13-1.46-.29-2.97-.16-4.45.12-1.32-1.93-3.02,1.02-4.2.72-.28.24-4.62-.43-6.87-.44-1.49-1.36-2.43.36-3.66.63-.44,1.28-2.04,1.01-2.35-2.44-2.89-.29-5.91-.59-8.79-.28-2.81-.49-4.96,1.66-7.34.93-1.05-.16-3.82-.23-5.81-.05-1.39.05-2.79.14-4.17.09-1.5,1.05-2.58.57-4.58-.48-2.04,1.95-4.87,3.4-7.15.33-.52,2.48-.69,2.79-.28,1.29,1.75,2.19,3.77,3.7,6.54.89-.35,2.62-1.1,4.4-1.74.99-.35,2.04-.46,3.05-.75,1.37-.39,2.69-1.01,4.1-1.25,1.05-.19,2.17.07,3.6.15.3-.27,1.13-1,2.14-1.88,1.17,1.49,2.14,3.54,4.15,1.21.24-.28,1.23-.03,1.82.13.48.14,1.17.86,1.29.75,3.99-3.3,5.93.51,8.26,2.44,2.46,2.04,4.84,4.24,6.93,6.64.91,1.03.99,2.79,1.42,4.22.82,2.73,1.61,5.45,2.43,8.17.28-.06.56-.12.84-.17-.41.58-.81,1.16-1.34,1.93,1,.66,1.85,1.22,2.58,1.72-1.65,4.95-3.26,9.8-4.83,14.54-2.3,1.44-4.81,2.82-7.06,4.53-1.08.82-1.61,2.33-2.5,3.44-.51.65-1.17,1.24-1.88,1.65-2.42,1.35-5.56-.21-7.95,2.3-.88.94-3.56.19-5.43.19-2.09.01-4.19,0-6.17-.48-4.24-.23-8.47-.45-13.04-.69,1.38,5.63,1.77,11.17-.53,16.76.93.71,1.92,1.45,3.1,2.35-4.85,2.25-2.61,6.26-2.61,9.6-.01,3.34.55,6.7.59,10.04,0,.78-1.07,1.57-1.68,2.42.58.72,1.31,1.64,2.1,2.61-.49.13-.91.23-1.7.43,3.1,2.02,2.31,3.52-.49,4.61,2.02,5.07-.88,8.63-6.4,8.01-.94-.1-1.94.35-2.89.28-.49-.03-.92-.65-1.38-1.01,2.32-2.39-.74-1.56-1.35-2.18m15.65-63.53c2.02,2.5,5.59-2.43,7.45,1.67,1.05-.45,2.04-1.07,3.15-1.34,1.95-.48,4.38-1.63,5.83-.92,2.14,1.06,3.41.35,5.06-.41,1.24-.58,2.64-.87,3.82-1.53,1.74-.95,4.88-2.32,4.77-3.17-.51-3.83,5.06-5.1,3.33-9.43-.84-2.09.64-5.02.09-7.33-1.39-5.88-6.34-10.07-12.36-9.27-1.58.22-3.81.92-4.67.17-2.67-2.33-5.12-.74-7.63-.27-2.47.49-4.94,1.15-7.34,1.9-1.42.45-2.38,1.24-1.15,3.01.31.43-.46,1.63-.51,1.77.08,1.44.24,2.35.17,3.25-.15,1.96-.51,3.9-.63,5.88-.17,3.27-.35,6.57-.27,9.85.03,1.21.84,2.39,1.28,3.59.38-.06.75-.13,1.14-.19-.56.98-1.1,1.96-1.56,2.75"/>
      <path class="cls-3" d="m1018.27,730.58c.44-2.08,1.32-3.86.96-5.33-.33-1.38-1.97-2.45-3.15-2.79-5.16-.71-10.31-1.73-15.49-2.03-4.84-.28-8.55-2.9-12.56-4.75.09-1.42.31-2.8.26-4.16-.21-4.09,1.67-5.72,5.62-4.64,2.22.6,4.35,1.56,6.57,2.14,3.02.78,6.07,1.37,9.13,2,.55.1,1.34.17,1.7-.13,3.1-2.52,6.33-.49,9.49-.38.48.01,1.17-.16,1.41-.51,1.09-1.58,1.88-1.53,2.69.22.92,1.99,2.18,2.24,3.75.58.37-.39,1.09-1,1.35-.88,3.69,1.75,5.76-.92,7.4-2.46,2.32,1.47,4.25,2.69,6.2,3.94,1.8-1.72,5.63-1.18,7.08.82.98,1.35,2.1,2.58,3.74,4.56-1.35,1.58-3.14,3.68-5.12,6-1.41-.21-2.88-2.1-5.04-.73-.42.27-1.86-1.07-2-1.15-2.25.53-4.12,1.61-5.5,1.17-3.24-1.06-5.59-.48-7.79,2.32.94.51,1.71.93,2.47,1.34-.01.27.06.57-.05.67-3.11,2.66-1.85,6.39-2.26,9.65-.43,3.26-.45,6.6-.48,9.89-.01,1.34.55,2.67.6,4.01.02.78-.37,1.59-.69,2.35-1.08,2.62-3,5.1-.51,8.08.62.73-.3,2.24.67,3.46.36.45-.85,2.15-1.64,3.95.75,1.45-3.88,5.5,2.16,6.35-1.53,2.1-2.85,3.92-3.56,4.92.46,1.46.78,2.33,1.01,3.22,1.05,3.99-1.86,7.4-1.39,11.5.26.03,1.38.1,1.38.19.01,1.64.52,3.77-.31,4.82-1.6,1.97-3.98,3.34-6.18,5.07-.1-.2-.37-.65-.88-1.53-.13,1.15-.2,1.8-.31,2.83-1.2-1.05-2.4-1.83-3.25-2.91-2.32-2.94-2.91-11.66-.91-14.02-.88-.67-1.75-1.35-2.91-2.24.73-.96,1.44-1.89,1.64-2.15.14-1.7.19-2.82.31-3.92.23-1.92.71-3.82.74-5.74.05-2.94-.42-5.9-.23-8.82.16-2.75,1.02-5.46,1.35-8.2.45-3.69.7-7.4,1.01-11.1.17-2.02-2.57-4.53,1.03-5.97-1.81-3.39,1.32-6.01,1.38-9.1,0-.19-.89-.39-.88-.39"/>
      <path class="cls-3" d="m924.81,726.74c.84-.37,1.78-.65,2.55-1.17.69-.45,1.17-1.18,1.44-1.46,2.08.69,3.95,1.82,5.81,1.81,5.49-.02,10.25,1.73,14.72,4.69.37.24,1.07-.05,1.61-.01.5.02,1.39.06,1.43.23.77,3.75,5.27,5.7,4.91,9.89-.12,1.34-.8,3.51-.55,3.91,2.89,4.62-2.57,9.07-.1,13.56.14.24-.57.87-.73,1.37-.64,1.94-1.58,3.87-1.71,5.85-.28,3.98-3.86,5.61-5.57,8.52-2.94,4.97-7.63,8.08-12.26,11.26-.59.41-.85,1.3-1.28,2-3.09-2.82-6.65-1.71-10.08-1.56-1.07.05-2.19.1-3.2-.17-3.36-.94-6.71-1.94-10-3.11-1.22-.44-2.52-1.2-3.31-2.18-2.94-3.72-6.06-7.37-8.28-11.51-.78-1.44-.69-3.72-1.38-5.65-.48-1.35,1.58-3.4,1.82-5.23.35-2.58-.16-5.27.14-7.86.22-1.93.91-3.9,1.82-5.61,1.32-2.46,3.79-4.06,3.92-7.49.08-1.89,2.48-3.81,4.09-5.48,1.9-1.99,4.38-3.5,6.04-5.63,1.66-2.15,3.9-1.07,5.79-1.7.38-.14,1.39,1.59,2.35,2.72m3.77,49.06c4.45-1.46,8.64-2.36,10.87-6.51.63-1.16,1.15-2.37,1.72-3.56.17.08.35.15.52.23.13-1.29.27-2.58.41-3.88,1.22.44,1.93.71,2.65.96.7-3.86,1.47-7.42,1.95-11.03.28-2.02-.49-4.32.21-6.11,1.35-3.46-.39-5.45-2.79-6.93-2.11-1.31-4.62-2.02-7.04-2.72-.39-.1-1.1,1.51-1.87,1.8-.58.22-1.5-.34-2.23-.66-.24-.1-.34-.55-.51-.82-2.06,1.58-4.04.8-6.17.05-.53-.19-1.52.91-2.53,1.54-.53-.65-1.17-1.42-1.79-2.21-.72-.91-1.43-1.82-2.14-2.74-1.2.96-2.81,1.7-3.51,2.94-2.25,4.08-.67,9.08-3.26,13.3-1.49,2.42-1.82,5.55-2.61,8.38-.14.49-.05,1.09.1,1.59.84,2.81,2.61,5.69,2.37,8.38-.29,3.11,1.35,3.03,3.14,3.62,1.63.52,3.6.81,4.7,1.9,1.96,1.95,4.24,2.42,6.29.63.5-.44,1.28-.56,2.16-.92-.24,1.05-.39,1.68-.65,2.76"/>
      <path class="cls-3" d="m653.46,784.04c1.73.26,2.58.37,3.45.5-.86.72-1.64,1.36-2.68,2.22.53,1.85,1.49,3.9,1.59,6,.06,1.05-1.54,2.1-2.16,3.29-.41.78-.37,1.78-.72,3.63-1.21,1.2-3.4,2.45-6.49,2.54-2.21.06-3.24-.81-3.48-2.47-.57-3.81-.85-7.66-1.07-11.51-.06-.84.63-1.7.91-2.57,1.06-3.31,2.08-6.63,3.22-10.23-1.3-.28-2.23-.48-3.22-.69.17-.77.34-1.51.53-2.37.85.16,1.7.33,3.16.62v-11.48c.44-.51,1.7-1.34,1.75-2.24.07-.86-1.13-1.81-2.09-3.19.37-2.55.6-5.48-2.37-8.11-1.67-1.47-1.89-4.46-3.22-6.46-1.42-2.15-3.5-3.87-5.04-5.95-1.07-1.43-2.28-3.1-2.44-4.75-.24-2.65-.36-4.81-3.08-6.41-1.08-.63-1.14-3.02-1.59-4.63-.49-1.73-.79-3.53-1.39-5.23-.74-2.12,1.15-5.3,3.44-5.45,1.03-.08,2.09-.01,2.36-.01,1.92,1.96,3.58,3.43,4.9,5.16.79,1.02,1.02,2.47,1.57,3.7.93,2.09,1.9,4.16,2.89,6.22.39.82,1.3,1.64,1.25,2.4-.26,3.7,2.9,4.61,5.04,6.27,2,1.57,3.44,4.37,2.98,6.96,5.28-.81,9.28-3.59,12.73-7.54-.52-.09-1.06-.2-2.64-.5,8.26-5.47,15.91-10.53,23.7-15.69-.14,1.83,1.97,1.34,3.02,2.59,3.29,3.96-.75,5.36-2.11,7.65-.75,1.27-1.9,2.32-2.95,3.39-1.68,1.73-3.58,3.29-5.14,5.11-4.77,5.57-12.29,8.21-15.95,14.92-.35.64-.58,1.35-.74,2.04-.73,3.33-1.09,6.79-2.21,10-1.65,4.7-2.09,9.46-1.56,14.32.48,4.26-.42,6.61-4.15,7.92"/>
    </g>
  </g>
</svg>